<svg xmlns="http://www.w3.org/2000/svg" viewBox="0 0 1920 467.6"><defs><style>.cls-1{fill:#fff;stroke:#c6c6c6;stroke-miterlimit:10;stroke-width:3px;}.cls-2{fill:#682dc5;}</style></defs><g id="Layer_2" data-name="Layer 2"><path class="cls-1" d="M191.13,21l73.25,227.29L338.16,21H480.89L553.6,245.61,627.93,21h153L646.24,433.58h-168L408.72,201.45,339.24,433.58h-168L35.47,21Z"/><path class="cls-1" d="M1262.37,140.59H1116.42v293H952.14v-293H805.65V21h456.72Z"/><path class="cls-1" d="M1878,286.55c10.23,23.16,9.15,59.24-8.08,87.25-32.86,52.78-99.64,60.32-137.34,60.32H1303.3V21h406.1c67.32.54,126,10.77,147.57,74.86,7.54,22.09,5.93,64.1-17.77,87.79-9.16,8.62-37.17,28-58.17,33.94C1811.73,227.84,1855.9,235.92,1878,286.55ZM1608.14,172.36c30.16,0,58.17-1.61,58.17-27.46s-28-27.47-58.17-27.47H1467.57v54.93Zm7,162.66c31.24,0,71.1-1.08,71.1-35.55,0-37.16-39.86-37.7-71.64-37.7h-147V335Z"/><path class="cls-2" d="M208.16,89.46l22.46,69.69,22.62-69.69H297l22.29,68.86,22.79-68.86H389L347.7,216H296.18l-21.3-71.18L253.57,216H202.05L160.43,89.46Z"/><path class="cls-2" d="M484.45,89.46,536,216H488.74l-9.58-23.45H417.9L408.65,216H361.42l51.19-126.5Zm-16.35,75.3L448.61,117.7l-19.32,47.06Z"/><path class="cls-2" d="M654.22,155.85V89.46h46.4V216H645.13L591,144.78V216H544.56V89.46H604Z"/><path class="cls-2" d="M852.06,126.12H807.3V216H756.94V126.12H712V89.46h140Z"/><path class="cls-2" d="M1035.37,126.12H990.61V216H940.25V126.12H895.33V89.46h140Z"/><path class="cls-2" d="M1122.9,85.83c45.9,0,83.23,21,83.23,66.88s-37.33,66.88-83.23,66.88c-46.08,0-83.07-21-83.07-66.88S1076.82,85.83,1122.9,85.83Zm0,101.72c22.78,0,34.67-11.22,34.67-34.67,0-23-12-35-34.34-35-22.79,0-34.68,12.22-34.68,34.67C1088.55,176.16,1100.77,187.55,1122.9,187.55Z"/><path class="cls-2" d="M1428.41,170.87c3.13,7.11,2.8,18.17-2.48,26.76-10.07,16.18-30.55,18.49-42.11,18.49H1252.2V89.46h124.52c20.64.17,38.64,3.3,45.25,23,2.31,6.77,1.81,19.65-5.45,26.91-2.81,2.65-11.4,8.59-17.84,10.41C1408.1,152.88,1421.64,155.35,1428.41,170.87Zm-82.74-35c9.25,0,17.84-.5,17.84-8.43s-8.59-8.42-17.84-8.42h-43.1v16.85Zm2.15,49.87c9.58,0,21.8-.33,21.8-10.9,0-11.4-12.22-11.56-22-11.56h-45.08v22.46Z"/><path class="cls-2" d="M1492.32,89.46V153c0,9.91-1.32,25.43,10.74,31.87,6.11,3.31,23.28,4.3,31.37-.49,11.56-6.94,10.74-19,10.74-29.73V89.46h50.2v73.16c0,46.4-31.87,57-77.12,57-47.07,0-76.3-10.57-76.3-57.14v-73Z"/><path class="cls-2" d="M1658.46,89.46l30.22,47.73,30.88-47.73h53l-59.29,92v34.68l-50.36-.16V181.11l-57.47-91.65Z"/></g></svg>